<svg style="position: absolute; width: 0; height: 0; overflow: hidden;" aria-hidden="true" version="1.1" xmlns="http://www.w3.org/2000/svg" xmlns:xlink="http://www.w3.org/1999/xlink">
    <defs>
        <symbol id="square-web-awesome-stroke-brands-solid-full" viewBox="0 0 640 640">
            <path d="M160 128c-17.7 0-32 14.3-32 32v320c0 17.7 14.3 32 32 32h320c17.7 0 32-14.3 32-32V160c0-17.7-14.3-32-32-32zM96 160c0-35.3 28.7-64 64-64h320c35.3 0 64 28.7 64 64v320c0 35.3-28.7 64-64 64H160c-35.3 0-64-28.7-64-64zM331 241.6 384 288l52.2-10.4c-2.6-3.9-4.2-8.5-4.2-13.6 0-13.3 10.7-24 24-24s24 10.7 24 24c0 13-10.3 23.6-23.2 24l-56.3 125.1c-5.2 11.5-16.6 18.9-29.2 18.9H268.7c-12.6 0-24-7.4-29.2-18.9L183.2 288c-12.9-0.4-23.2-11-23.2-24 0-13.3 10.7-24 24-24s24 10.7 24 24c0 5-1.5 9.7-4.2 13.6L256 288l53.1-46.4c-8.9-4.1-15-13.1-15-23.6 0-14.4 11.6-26 26-26s26 11.6 26 26c0 10.5-6.2 19.5-15.1 23.6z" />
        </symbol>
        <symbol id="fort-awesome-brands-solid-full" viewBox="0 0 640 640">
            <path d="M553.5 351.9h-27.4c-2.6 0-4.6 2-4.6 4.6v32h-36.6V210.2c0-2.6-2-4.6-4.6-4.6h-27.4c-2.6 0-4.6 2-4.6 4.6v32h-36.6v-32c0-2.6-2-4.6-4.6-4.6h-27.4c-2.6 0-4.6 2-4.6 4.6v32h-36.6v-32c0-6-8-4.6-11.7-4.6v-38c8.3-2 17.1-3.4 25.7-3.4 10.9 0 20.9 4.3 31.4 4.3 4.6 0 27.7-1.1 27.7-8v-60c0-2.6-2-4.6-4.6-4.6-5.1 0-15.1 4.3-24 4.3-9.7 0-20.9-4.3-32.6-4.3-8 0-16 1.1-23.7 2.9v-4.9c5.4-2.6 9.1-8.3 9.1-14.3 0-20.7-31.4-20.8-31.4 0 0 6 3.7 11.7 9.1 14.3v111.7c-3.7 0-11.7-1.4-11.7 4.6v32h-36.6v-32c0-2.6-2-4.6-4.6-4.6h-27.4c-2.6 0-4.6 2-4.6 4.6v32h-36.3v-32c0-2.6-2-4.6-4.6-4.6h-27.4c-2.6 0-4.6 2-4.6 4.6v178.3h-36.6v-32c0-2.6-2-4.6-4.6-4.6H87.1c-2.6 0-4.6 2-4.6 4.6V576h182.9v-96c0-72.6 109.7-72.6 109.7 0v96H558V356.5c0.1-2.6-1.9-4.6-4.5-4.6zM265.4 347.4c0 2.6-2 4.6-4.6 4.6h-27.4c-2.6 0-4.6-2-4.6-4.6v-64c0-2.6 2-4.6 4.6-4.6h27.4c2.6 0 4.6 2 4.6 4.6zM411.8 347.4c0 2.6-2 4.6-4.6 4.6h-27.4c-2.6 0-4.6-2-4.6-4.6v-64c0-2.6 2-4.6 4.6-4.6h27.4c2.6 0 4.6 2 4.6 4.6z" />
        </symbol>
        <symbol id="chess-knight-regular-full" viewBox="0 0 640 640">
            <path d="M328 32c110.5 0 200 89.5 200 200v127.7c0 18.9-6.1 37.1-17.2 52.2l-5.1 6.2-36.3 40.7 32.1 40.2c6.7 8.4 10.4 18.8 10.4 29.6l-0.2 4.8c-2.4 23.9-22.6 42.5-47.1 42.5H175.4l-4.8-0.2c-23.9-2.4-42.5-22.6-42.5-47.1 0-10.8 3.7-21.2 10.4-29.6l37.6-47v-24.3c0-24.3 10.1-47.6 27.8-64.2l63.5-59.5H250l-0.2 0.2c-20.3 20.3-49.6 28.2-77.1 21.1l-5.5-1.6c-30.9-10.3-52.3-38-54.9-70.1l-0.2-6.4v-1.4c0-19.7 7.1-38.8 19.9-53.8l76.1-88.8V56.1l0.1-2.5C209.4 41.4 219.6 32 232 32zM176.7 528h286.6l-38.4-48H215l-38.4 48zM256 112c0 5.7-2.1 11.3-5.8 15.6l-81.9 95.5c-5.3 6.3-8.3 14.3-8.3 22.6v1.4l0.4 5.2c1.9 11.9 10.3 21.9 21.9 25.8l4.5 1.1c10.5 1.9 21.3-1.4 29-9l7.2-7.2 3.7-3c3.9-2.6 8.5-4 13.3-4h88c9.8 0 18.7 6 22.3 15.2s1.3 19.6-5.9 26.3l-107.8 101c-8.1 7.6-12.7 18.1-12.7 29.2v4.3h205.2l40.7-45.8 2.3-2.8c5.1-6.8 7.8-15.2 7.8-23.7L480 232c0-83.9-68.1-152-152-152h-72zM288 184c-13.3 0-24-10.7-24-24s10.7-24 24-24 24 10.7 24 24-10.7 24-24 24z" />
        </symbol>
        <symbol id="trophy-solid-full" viewBox="0 0 640 640">
            <path d="M208.3 64h224c26.5 0 48.1 21.8 47.1 48.2-0.2 5.3-0.4 10.6-0.7 15.8h49.6c26.1 0 49.1 21.6 47.1 49.8-7.5 103.7-60.5 160.7-118 190.5-15.8 8.2-31.9 14.3-47.2 18.8-20.2 28.6-41.2 43.7-57.9 51.8V512h64c17.7 0 32 14.3 32 32s-14.3 32-32 32h-192c-17.7 0-32-14.3-32-32s14.3-32 32-32h64v-73.1c-16-7.7-35.9-22-55.3-48.3-18.4-4.8-38.4-12.1-57.9-23.1C121 337.2 72.2 280.1 65.2 177.6c-1.9-28.1 21-49.7 47.1-49.7h49.6c-0.3-5.2-0.5-10.4-0.7-15.8-1-26.5 20.6-48.2 47.1-48.2zM165.5 176h-52.4c6.2 84.7 45.1 127.1 85.2 149.6-14.4-37.3-26.3-86-32.8-149.6zM444 320.8c40.5-23.8 77.1-66.1 83.3-144.8H475c-6.2 60.9-17.4 108.2-31 144.8z" />
        </symbol>
        <symbol id="school-solid-full" viewBox="0 0 640 640">
            <path d="M32 256c0-35.3 28.7-64 64-64h64L287.9 76.9c18.3-16.4 46-16.4 64.2 0L480 192h64c35.3 0 64 28.7 64 64v256c0 35.3-28.7 64-64 64H96c-35.3 0-64-28.7-64-64zM256 440v88h128v-88c0-22.1-17.9-40-40-40h-48c-22.1 0-40 17.9-40 40zM144 448c8.8 0 16-7.2 16-16v-32c0-8.8-7.2-16-16-16h-32c-8.8 0-16 7.2-16 16v32c0 8.8 7.2 16 16 16zM160 304v-32c0-8.8-7.2-16-16-16h-32c-8.8 0-16 7.2-16 16v32c0 8.8 7.2 16 16 16h32c8.8 0 16-7.2 16-16zM528 448c8.8 0 16-7.2 16-16v-32c0-8.8-7.2-16-16-16h-32c-8.8 0-16 7.2-16 16v32c0 8.8 7.2 16 16 16zM544 304v-32c0-8.8-7.2-16-16-16h-32c-8.8 0-16 7.2-16 16v32c0 8.8 7.2 16 16 16h32c8.8 0 16-7.2 16-16zM320 320c35.3 0 64-28.7 64-64s-28.7-64-64-64-64 28.7-64 64 28.7 64 64 64z" />
        </symbol>
        <symbol id="book-bookmark-solid-full" viewBox="0 0 640 640">
            <path d="M192 576h320c17.7 0 32-14.3 32-32s-14.3-32-32-32v-66.7c18.6-6.6 32-24.4 32-45.3V112c0-26.5-21.5-48-48-48h-48v169.4c0 12.5-10.1 22.6-22.6 22.6-6 0-11.8-2.4-16-6.6L368 208l-41.4 41.4c-4.2 4.2-10 6.6-16 6.6-12.5 0-22.6-10.1-22.6-22.6V64h-96c-53 0-96 43-96 96v320c0 53 43 96 96 96zM160 480c0-17.7 14.3-32 32-32h256v64H192c-17.7 0-32-14.3-32-32z" />
        </symbol>
    </defs>
</svg>